<?xml version="1.0" standalone="no"?><!DOCTYPE svg PUBLIC "-//W3C//DTD SVG 1.1//EN" "http://www.w3.org/Graphics/SVG/1.1/DTD/svg11.dtd"><svg t="1647530400222" class="icon" viewBox="0 0 1025 1024" version="1.1" xmlns="http://www.w3.org/2000/svg" p-id="1652" xmlns:xlink="http://www.w3.org/1999/xlink" width="200.1953125" height="200"><defs><style type="text/css"></style></defs><path d="M0 512A512 512 0 1 0 512 0 512 512 0 0 0 0 512z" fill="#FF8040" p-id="1653"></path><path d="M513.28 819.2a55.552 55.552 0 0 1 0-110.336 55.552 55.552 0 0 1 0 110.336z m0-179.2c-17.664 0-32.256-32.768-32.256-73.216L449.024 236.8A69.12 69.12 0 0 1 512 163.584a69.376 69.376 0 0 1 64.256 73.216l-31.232 329.728c0.256 40.448-14.08 73.472-31.744 73.472z" fill="#FFFFFF" p-id="1654"></path></svg>