<?xml version="1.0" standalone="no"?><!DOCTYPE svg PUBLIC "-//W3C//DTD SVG 1.1//EN" "http://www.w3.org/Graphics/SVG/1.1/DTD/svg11.dtd"><svg t="1647530449512" class="icon" viewBox="0 0 1097 1024" version="1.1" xmlns="http://www.w3.org/2000/svg" p-id="9314" xmlns:xlink="http://www.w3.org/1999/xlink" width="214.2578125" height="200"><defs><style type="text/css"></style></defs><path d="M1060.571429 585.142857h-73.142858c-20.48 0-36.571429-16.091429-36.571428-36.571428s16.091429-36.571429 36.571428-36.571429h73.142858c20.48 0 36.571429 16.091429 36.571428 36.571429s-16.091429 36.571429-36.571428 36.571428zM109.714286 585.142857h-73.142857C16.091429 585.142857 0 569.051429 0 548.571429S16.091429 512 36.571429 512h73.142857c20.48 0 36.571429 16.091429 36.571428 36.571429s-16.091429 36.571429-36.571428 36.571428zM936.228571 212.114286l-51.2 51.931428c-14.628571 14.628571-37.302857 14.628571-51.931428 0-14.628571-14.628571-14.628571-37.302857 0-51.931428l51.931428-51.2c14.628571-14.628571 37.302857-14.628571 51.931429 0 13.897143 13.897143 13.897143 37.302857-0.731429 51.2zM585.142857 36.571429v73.142857c0 20.48-16.091429 36.571429-36.571428 36.571428S512 130.194286 512 109.714286v-73.142857c0-20.48 16.091429-36.571429 36.571429-36.571429s36.571429 16.091429 36.571428 36.571429zM212.114286 160.914286l51.931428 51.2c14.628571 14.628571 14.628571 37.302857 0 51.931428-14.628571 14.628571-37.302857 14.628571-51.931428 0l-51.2-51.931428c-14.628571-13.897143-14.628571-37.302857 0-51.2 13.897143-14.628571 37.302857-14.628571 51.2 0zM621.714286 1024h-146.285715c-20.48 0-36.571429-16.091429-36.571428-36.571429s16.091429-36.571429 36.571428-36.571428h146.285715c20.48 0 36.571429 16.091429 36.571428 36.571428s-16.091429 36.571429-36.571428 36.571429z" fill="#FF8A01" p-id="9315"></path><path d="M548.571429 548.571429m-329.142858 0a329.142857 329.142857 0 1 0 658.285715 0 329.142857 329.142857 0 1 0-658.285715 0Z" fill="#FF8A01" p-id="9316"></path></svg>